#!OML:ASF F:\VICON\USERDATA\INSTALL\rory3\rory3.ASF
:FULLY-SPECIFIED
:DEGREES
257
root 0.933058 17.7883 11.0173 25.0247 78.9852 27.1534
lowerback 11.6839 0.403494 -5.90475
upperback 0.938968 -0.202283 -0.202541
thorax -5.55294 0.0581154 3.15035
lowerneck -21.5048 -5.27552 -11.8238
upperneck 29.5026 -5.45514 7.67667
head 14.3022 -2.50052 4.16123
rclavicle -1.36664e-014 3.18055e-015
rhumerus -35.476 -14.4252 -80.4972
rradius 31.5885
rwrist 2.98478
rhand -15.8459 7.90214
rfingers 7.12502
rthumb 10.3488 -21.8232
lclavicle -1.36664e-014 3.18055e-015
lhumerus -24.6908 -2.60492 87.0401
lradius 36.6557
lwrist -6.34943
lhand -15.9078 24.622
lfingers 7.12502
lthumb 10.2891 54.3504
rfemur -26.8288 -1.48638 10.5543
rtibia 42.5409
rfoot -7.80296 -8.78843
rtoes -0.479743
lfemur 4.74872 3.78071 -33.056
ltibia 12.2289
lfoot -10.0074 -8.56949
ltoes 6.39242
258
root 1.04883 17.7915 11.0579 25.6668 79.2688 27.6682
lowerback 11.5357 0.374016 -5.89878
upperback 0.968872 -0.228682 -0.19559
thorax -5.43578 0.0410326 3.15765
lowerneck -21.5307 -5.33538 -11.831
upperneck 29.4446 -5.54598 7.70375
head 14.2953 -2.5361 4.15374
rclavicle -4.9721e-014 -1.55052e-014
rhumerus -35.5435 -14.6348 -80.478
rradius 31.4587
rwrist 2.93271
rhand -15.8322 7.94547
rfingers 7.12502
rthumb 10.362 -21.7792
lclavicle -4.9721e-014 -1.55052e-014
lhumerus -24.3791 -2.82895 86.9968
lradius 36.8754
lwrist -6.37546
lhand -15.8027 24.6431
lfingers 7.12502
lthumb 10.3904 54.3664
rfemur -26.8446 -1.2646 10.6268
rtibia 40.1163
rfoot -6.88862 -9.20175
rtoes -2.23722
lfemur 5.50163 3.64821 -32.92
ltibia 11.4541
lfoot -9.45793 -8.97522
ltoes 8.91075
259
root 1.16522 17.8003 11.1005 26.4722 79.5726 28.3695
lowerback 11.4603 0.325805 -5.95802
upperback 0.953879 -0.294716 -0.172069
thorax -5.40265 0.00930471 3.22598
lowerneck -21.566 -5.325 -11.8553
upperneck 29.4833 -5.53113 7.74622
head 14.3205 -2.52584 4.18022
rclavicle 3.598e-014 -2.38542e-014
rhumerus -35.6928 -14.6293 -80.5082
rradius 31.3544
rwrist 2.89586
rhand -15.9229 7.83366
rfingers 7.12502
rthumb 10.2745 -21.8954
lclavicle 3.598e-014 -2.38542e-014
lhumerus -24.1764 -3.14211 87.0274
lradius 37.123
lwrist -5.64941
lhand -16.0041 24.517
lfingers 7.12502
lthumb 10.1962 54.2499
rfemur -26.8006 -0.91729 10.6539
rtibia 37.7184
rfoot -6.1162 -9.62051
rtoes -2.66693
lfemur 6.23474 3.51248 -32.804
ltibia 10.7068
lfoot -8.97772 -9.24723
ltoes 10.5921
260
root 1.28031 17.8021 11.1395 27.9339 79.8151 29.7047
lowerback 11.3441 0.272937 -6.10012
upperback 0.954646 -0.3743 -0.16445
thorax -5.32813 -0.0288067 3.32585
lowerneck -21.648 -5.30807 -11.7874
upperneck 29.5251 -5.49529 7.66576
head 14.3465 -2.51258 4.14299
rclavicle 1.76421e-014 7.95139e-015
rhumerus -35.7985 -14.5555 -80.5596
rradius 31.2621
rwrist 2.88413
rhand -16.3462 7.72582
rfingers 7.12502
rthumb 9.86619 -22.023
lclavicle 1.76421e-014 7.95139e-015
lhumerus -23.9402 -3.5432 87.1067
lradius 37.3182
lwrist -4.66468
lhand -16.2129 24.6949
lfingers 7.12502
lthumb 9.99475 54.4375
rfemur -26.8131 -0.755664 10.513
rtibia 35.3749
rfoot -5.64253 -9.79915
rtoes -1.37313
lfemur 6.89628 3.07433 -32.8964
ltibia 9.97493
lfoot -8.68818 -8.80121
ltoes 10.2606
261
root 1.40011 17.7969 11.1765 29.3533 80.0125 31.0176
lowerback 11.2269 0.183733 -6.19713
upperback 0.953843 -0.497954 -0.194155
thorax -5.25026 -0.0901303 3.36735
lowerneck -21.6999 -5.29282 -11.8103
upperneck 29.5285 -5.47549 7.71621
head 14.3593 -2.49909 4.17192
rclavicle -8.44835e-015 -1.19271e-015
rhumerus -35.9202 -14.5592 -80.654
rradius 31.1686
rwrist 3.00735
rhand -16.5562 7.73568
rfingers 7.12502
rthumb 9.66354 -22.0227
lclavicle -8.44835e-015 -1.19271e-015
lhumerus -23.7341 -3.69839 86.9308
lradius 37.4521
lwrist -4.51202
lhand -15.7209 24.9347
lfingers 7.12502
lthumb 10.4694 54.654
rfemur -26.7937 -0.721434 10.3834
rtibia 33.1367
rfoot -5.50034 -9.79504
rtoes 0.217889
lfemur 7.59673 2.68152 -32.9957
ltibia 9.24685
lfoot -8.42881 -8.40259
ltoes 9.96722
262
root 1.52122 17.7932 11.218 30.2723 80.2394 31.852
lowerback 11.0949 0.0968534 -6.3191
upperback 0.974992 -0.614898 -0.135867
thorax -5.14005 -0.148513 3.51396
lowerneck -21.7778 -5.31022 -12.0072
upperneck 29.579 -5.46488 7.85635
head 14.4102 -2.49718 4.26872
rclavicle 2.86747e-014 9.14409e-015
rhumerus -35.9926 -14.475 -80.6127
rradius 31.0661
rwrist 3.08918
rhand -16.2128 7.94231
rfingers 7.12502
rthumb 9.99489 -21.8004
lclavicle 2.86747e-014 9.14409e-015
lhumerus -23.5768 -3.99242 86.9707
lradius 37.6991
lwrist -3.54348
lhand -16.8843 26.0783
lfingers 7.12502
lthumb 9.34695 55.8511
rfemur -26.7504 -0.70046 10.4306
rtibia 31.0667
rfoot -5.53149 -9.65447
rtoes 0.0690911
lfemur 8.37401 2.30427 -32.9602
ltibia 8.46878
lfoot -8.20145 -8.08275
ltoes 9.02965
263
root 1.64222 17.7868 11.2607 31.0542 80.5801 32.5972
lowerback 11.0509 0.0367393 -6.31806
upperback 1.00109 -0.686642 -0.0684609
thorax -5.07932 -0.18578 3.59456
lowerneck -21.7783 -5.31001 -11.9328
upperneck 29.548 -5.44158 7.70876
head 14.3856 -2.49887 4.19672
rclavicle -3.05134e-014 5.96354e-015
rhumerus -36.0733 -14.479 -80.5
rradius 30.9311
rwrist 3.18807
rhand -15.9938 8.12037
rfingers 7.12502
rthumb 10.2062 -21.612
lclavicle -3.05134e-014 5.96354e-015
lhumerus -23.4497 -4.49497 87.1928
lradius 37.955
lwrist -2.31101
lhand -18.7138 27.2149
lfingers 7.12502
lthumb 7.58137 57.059
rfemur -26.6607 -1.07558 10.718
rtibia 29.1216
rfoot -5.4773 -9.17508
rtoes -3.16309
lfemur 9.18048 1.85266 -32.8489
ltibia 7.75789
lfoot -8.01052 -7.81941
ltoes 7.46142
